<?xml version="1.0" standalone="no"?>
<!DOCTYPE svg PUBLIC "-//W3C//DTD SVG 20010904//EN"
 "http://www.w3.org/TR/2001/REC-SVG-20010904/DTD/svg10.dtd">
<svg version="1.0" xmlns="http://www.w3.org/2000/svg"
 width="512.000000pt" height="512.000000pt" viewBox="0 0 512.000000 512.000000"
 preserveAspectRatio="xMidYMid meet">

<g transform="translate(0.000000,512.000000) scale(0.100000,-0.100000)"
fill="#FFFFFF" stroke="none">
<path d="M1055 5099 c-33 -11 -82 -38 -110 -59 -27 -22 -230 -220 -451 -442
-342 -343 -405 -412 -430 -463 l-29 -60 -3 -1880 c-2 -2076 -7 -1932 61 -2031
46 -67 119 -121 197 -144 64 -20 91 -20 1790 -18 l1725 3 62 29 c69 31 148
107 181 172 39 77 56 242 31 298 -23 51 -103 55 -128 7 -6 -11 -11 -49 -11
-86 0 -104 -16 -152 -71 -207 -29 -29 -61 -51 -87 -57 -28 -8 -549 -10 -1744
-9 l-1705 3 -48 30 c-36 22 -57 45 -77 84 l-28 53 0 1849 0 1848 373 3 c333 3
376 5 412 21 46 21 97 67 128 117 21 34 22 46 27 420 l5 385 1309 3 c925 1
1321 -1 1350 -9 57 -15 129 -91 144 -152 8 -32 12 -204 12 -566 0 -508 1 -522
20 -541 30 -30 83 -27 109 6 21 26 21 36 21 545 0 537 -3 586 -42 663 -33 65
-112 141 -181 172 l-62 29 -1345 2 c-1335 2 -1345 2 -1405 -18z m-90 -847 c-3
-13 -18 -35 -32 -48 l-26 -24 -306 0 -306 0 335 335 335 335 3 -287 c1 -159 0
-299 -3 -311z"/>
<path d="M1659 4577 c-18 -12 -44 -38 -56 -56 -22 -32 -23 -44 -23 -203 0
-195 8 -223 72 -266 33 -21 54 -26 123 -30 96 -5 128 1 155 28 26 26 25 60 0
93 -19 24 -28 26 -108 29 l-87 3 -3 138 -3 137 786 0 786 0 -3 -137 -3 -138
-549 -3 c-548 -2 -550 -2 -573 -24 -38 -35 -29 -89 18 -113 24 -13 114 -15
567 -15 375 0 549 3 573 11 41 14 93 61 109 99 7 18 10 86 8 198 -3 186 -7
198 -72 246 -27 21 -37 21 -855 24 l-828 2 -34 -23z"/>
<path d="M3919 3461 c-44 -14 -70 -32 -134 -91 -73 -68 -102 -77 -191 -59
-118 23 -240 -23 -304 -117 -38 -55 -48 -82 -59 -159 -12 -83 -29 -106 -109
-148 -125 -66 -185 -157 -186 -278 0 -55 6 -77 37 -143 45 -94 46 -129 7 -204
-94 -181 -39 -348 146 -440 74 -37 92 -64 106 -150 13 -83 38 -139 86 -187 37
-38 122 -85 155 -85 16 0 17 -24 17 -360 0 -340 1 -363 20 -400 23 -45 50 -67
103 -81 55 -15 88 -2 248 97 78 48 146 87 153 87 6 0 71 -37 145 -83 164 -102
197 -115 254 -99 47 12 81 39 105 84 15 26 17 78 20 391 l3 360 43 12 c54 14
122 65 158 117 27 40 36 70 58 176 13 66 38 93 122 133 61 29 105 72 140 139
18 34 23 59 23 128 0 78 -3 91 -34 150 -44 84 -44 124 0 209 31 59 34 73 34
150 0 75 -3 91 -29 137 -37 67 -68 96 -147 137 -74 38 -105 78 -114 144 -17
125 -73 210 -168 256 -70 34 -123 41 -201 26 -89 -17 -117 -8 -184 57 -78 76
-137 103 -227 102 -38 0 -82 -4 -96 -8z m219 -203 c97 -95 189 -124 311 -98
53 11 62 10 104 -8 58 -26 76 -55 92 -145 22 -127 75 -197 191 -255 69 -35 95
-67 102 -128 4 -35 -2 -56 -34 -120 -34 -68 -38 -87 -38 -149 0 -62 4 -81 37
-146 42 -87 46 -126 15 -180 -16 -29 -37 -46 -86 -71 -113 -55 -174 -139 -188
-257 -8 -67 -35 -116 -76 -137 -34 -18 -63 -19 -169 -9 -105 11 -161 -9 -242
-85 -74 -69 -95 -80 -142 -80 -50 0 -97 24 -132 68 -17 21 -54 51 -84 67 -56
31 -96 35 -267 24 -86 -5 -137 46 -152 154 -11 76 -44 149 -87 189 -15 15 -59
44 -97 65 -117 64 -137 129 -76 248 32 63 35 77 35 155 0 77 -3 90 -31 140
-39 70 -46 98 -34 142 15 54 45 84 115 118 102 49 158 127 175 247 9 70 27
103 74 137 22 17 39 20 84 17 203 -13 256 1 340 87 64 67 78 73 145 69 55 -3
61 -6 115 -59z m-431 -1859 c15 -5 52 -34 83 -63 67 -64 104 -85 174 -96 101
-16 193 16 268 93 26 26 63 54 82 62 70 30 66 53 66 -335 0 -192 -3 -350 -6
-350 -4 0 -74 41 -156 91 -169 104 -207 115 -274 81 -21 -11 -94 -54 -162 -96
-67 -42 -127 -76 -132 -76 -6 0 -10 126 -10 350 0 339 1 350 19 350 11 0 32
-5 48 -11z"/>
<path d="M3885 2973 c-227 -55 -396 -208 -471 -428 -33 -99 -38 -243 -11 -343
48 -179 168 -327 332 -407 95 -47 172 -65 280 -65 337 0 607 258 623 595 8
191 -48 335 -183 471 -65 65 -98 90 -166 122 -46 22 -108 45 -137 51 -52 11
-228 13 -267 4z m250 -158 c179 -47 316 -201 347 -390 24 -141 -25 -288 -132
-399 -231 -240 -623 -173 -767 131 -33 68 -38 88 -41 170 -3 51 1 113 7 138
65 259 329 417 586 350z"/>
<path d="M611 3274 c-27 -35 -26 -57 3 -91 l24 -28 959 -3 c527 -2 973 0 991
3 66 12 95 82 52 125 -20 20 -33 20 -1014 20 l-995 0 -20 -26z"/>
<path d="M633 2768 c-48 -23 -51 -103 -4 -127 13 -8 329 -11 1004 -11 l984 0
21 23 c31 33 29 80 -4 106 -27 21 -30 21 -1003 20 -662 0 -983 -4 -998 -11z"/>
<path d="M623 2235 c-11 -8 -24 -26 -27 -40 -7 -29 15 -79 39 -89 9 -3 457 -6
994 -6 975 0 978 0 1005 21 34 27 36 77 3 107 l-23 22 -985 0 c-852 0 -987 -2
-1006 -15z"/>
<path d="M611 1694 c-27 -35 -26 -57 3 -91 l24 -28 992 0 992 0 19 24 c25 30
24 76 -1 101 -20 20 -33 20 -1014 20 l-995 0 -20 -26z"/>
<path d="M627 939 c-46 -27 -41 -105 9 -128 18 -8 173 -11 519 -11 l494 0 25
23 c36 32 39 74 6 107 -19 19 -33 20 -527 20 -336 -1 -514 -4 -526 -11z"/>
</g>
</svg>
